<svg width="80" height="80" viewBox="0 0 80 80" fill="none" xmlns="http://www.w3.org/2000/svg">
<rect width="80" height="80" rx="40" fill="white"/>
<path d="M69.191 53.3121L69.4849 50.1212L73.1098 54.2095L76 57.3506L69.191 57.5001V53.3121Z" fill="#4ECDC4"/>
<path d="M36.0768 53.3121H39.3588L50.4785 22.5H52.144V28.9815L47.0006 43.6895H52.144V47.4289H45.7269L42.151 57.5001H36.0768V53.3121Z" fill="#4ECDC4"/>
<path d="M69.191 53.3121H65.909L54.7893 22.5H53.1238V28.9815L58.2672 43.6895H53.1238V47.4289H59.5409L63.1168 57.5001H69.191V53.3121Z" fill="#4ECDC4"/>
<path d="M20.4997 22.5H34.9994V26.2892L31.2765 26.2393V51.9161H27.0638V26.2393L20.4997 26.2892V22.5Z" fill="#4ECDC4"/>
<path d="M36.6649 22.5H42.6412V26.2892H36.6649V22.5Z" fill="#4ECDC4"/>
<path d="M27.0638 51.8164H31.2765C31.2765 51.8164 31.2765 52.0158 31.3255 52.2152C31.3745 52.4146 31.4235 52.5642 31.7174 52.8634C32.0113 53.1625 32.7951 53.3121 33.9217 53.3121C35.0484 53.3121 34.9994 53.3121 34.9994 53.3121V57.5001C34.9994 57.5001 34.9994 57.5001 32.5501 57.5001C30.1009 57.5001 28.7783 56.0543 28.3374 55.5557C27.8965 55.0571 27.0638 53.9602 27.0638 52.2152C27.0638 50.4702 27.0638 51.8164 27.0638 51.8164Z" fill="#4ECDC4"/>
<path d="M6 34.1667H12.2701L12.907 40.5485L8.93913 36.859L6 34.1667Z" fill="#4ECDC4"/>
<path d="M21.6481 26.2884C18.9912 26.2884 18.1484 29.3807 18.1484 30.7265C18.1484 38.2052 14.3056 31.5754 14.4254 28.8818C14.4255 25.292 17.4388 22.5 20.1078 22.5C29.9539 22.5 21.6481 23.5354 21.6481 26.2884Z" fill="#4ECDC4"/>
<path d="M18.0227 32.9203C17.6655 35.5627 15.8295 37.906 13.1241 37.906C10.4187 37.906 10.8218 36.9203 10.8218 34.1667C14.4255 34.1667 14.4255 34.1667 14.4255 28.8319C17.7565 28.8319 18.3933 30.1781 18.0227 32.9203Z" fill="#4ECDC4"/>
</svg>
